# xmcd
#
# Track frame offsets:
#	150
#	19507
#	31711
#	46067
#	58544
#	70118
#	82522
#	97358
#	107562
#	122141
#	132792
#	144992
#	160782
#	172896
#
# Disc length: 2529 seconds
#
# Revision: 0
# Processed by: cddbd v1.5.2PL0 Copyright (c) Steve Scherf et al.
# Submitted via: dBpowerAMP V4.0
#
DISCID=a209df0e
DTITLE=Wenche - Dance The Night Away
DYEAR=2007
DGENRE=Country
TTITLE0=Dance The Night Away
TTITLE1=Love's Gonna Live Here Again
TTITLE2=Walkin' On Sunshine
TTITLE3=There's A Kind Of Hush
TTITLE4=Why'd You Come In Here Lookin' Like That
TTITLE5=Mi Vida Loca (My Crazy Life)
TTITLE6=Mama He's Crazy
TTITLE7=Gettin' Good At Gettin' Over You
TTITLE8=Here Comes My Baby
TTITLE9=Your Good Girl's Gonna Go Bad
TTITLE10=Honky Tonk Saturday Night
TTITLE11=Hold Me
TTITLE12=Little Bitty
TTITLE13=If Tomorrow Never Comes
EXTD=
EXTT0=
EXTT1=
EXTT2=
EXTT3=
EXTT4=
EXTT5=
EXTT6=
EXTT7=
EXTT8=
EXTT9=
EXTT10=
EXTT11=
EXTT12=
EXTT13=
PLAYORDER=
